PathFileType	4	(X/Y/Z)	C:\Users\WrightLab\Desktop\Jo\P2_Trial27.trc
DataRate	CameraRate	NumFrames	NumMarkers	Units	OrigDataRate	OrigDataStartFrame	OrigNumFrames
100.00	100.00	       7	19	mm	100.00	376	       501
Frame#	Time	Headset_Front			Headset_Back			Headset_Left			Headset_Right			Left_Shoulder			Right_Shoulder			Sternum			C7			Left Elbow			Right Elbow			Left Wrist			Right Wrist			Left ASIS			Right ASIS			S2			Left Knee			Right Knee			Left Ankle			Right Ankle			
		X1	Y1	Z1	X2	Y2	Z2	X3	Y3	Z3	X4	Y4	Z4	X5	Y5	Z5	X6	Y6	Z6	X7	Y7	Z7	X8	Y8	Z8	X9	Y9	Z9	X10	Y10	Z10	X11	Y11	Z11	X12	Y12	Z12	X13	Y13	Z13	X14	Y14	Z14	X15	Y15	Z15	X16	Y16	Z16	X17	Y17	Z17	X18	Y18	Z18	X19	Y19	Z19	

376	3.750	-180.17796	1453.53271	1889.70581	-97.01118	1663.52649	1676.01367	-24.11810	1562.26086	1798.30371	-252.98529	1529.98804	1784.28906	28.69651	1396.97302	1701.64563				-158.37726	1301.46045	1739.93494				58.79685	1096.86145	1874.93372	-406.33060	1166.05457	1493.71472	18.70803	927.92029	2030.87000	-535.87329	953.79279	1474.39441	-111.78030	992.38477	1777.77576	-251.07903	991.98926	1768.34387	-168.41243	919.97876	1508.01624	134.35445	430.52234	1744.75818	-279.44821	582.75677	1835.84351	198.52365	337.73059	1430.22278	-200.94879	165.62268	1910.75378	
377	3.760	-186.35628	1457.78027	1900.68750	-99.59482	1667.89783	1688.16858	-29.01811	1566.58655	1812.32007	-257.50275	1533.97229	1794.02844	25.41022	1400.55737	1718.20032				-162.04164	1305.69409	1751.72607				53.77602	1099.73083	1892.04236	-403.46213	1167.22388	1504.52502	12.13603	930.69232	2047.46277	-532.79950	955.16315	1491.40833	-117.61779	996.40613	1791.49390	-256.62079	997.30560	1779.72888	-168.04259	925.20850	1519.81299	121.71753	438.74588	1783.08594	-283.50101	581.94550	1835.15063	199.19603	336.91937	1472.07178	-200.89420	165.80092	1914.31567	
378	3.770	-192.82924	1462.98499	1911.76990	-101.21440	1671.28674	1699.91003	-33.31524	1571.00806	1825.78772	-261.98950	1538.17639	1802.97644	22.23783	1404.12927	1734.63770				-166.43497	1308.96252	1762.50586				49.59747	1101.74146	1908.26135	-400.10794	1168.84167	1514.33777	5.71755	931.95551	2062.03906	-530.16113	957.15717	1507.52100	-123.72842	1000.04431	1805.11438	-262.09827	1001.83911	1790.66284	-167.03998	929.44604	1530.37244	106.18704	447.36279	1815.55920	-286.89682	581.90192	1836.35046	199.35597	334.04877	1514.34717	-200.45268	165.39261	1917.52527	
379	3.780	-199.34193	1468.57788	1923.33838	-103.23645	1674.03687	1710.42371	-38.76397	1575.77954	1838.77576	-266.80783	1542.86646	1812.58105	18.63292	1406.81189	1750.79175				-170.62448	1313.10840	1775.69006				45.44326	1103.84192	1923.67493	-397.01593	1170.87549	1523.90723	-0.11684	933.99951	2077.02124	-527.07416	959.16705	1523.62598	-130.46509	1003.85974	1819.07739	-267.64313	1006.33026	1800.89294	-164.71243	933.77753	1543.09082	91.53867	457.16077	1848.65393	-290.77628	581.86896	1836.45239	197.39040	328.53976	1558.41956	-200.41399	165.14450	1920.24194	
380	3.790	-206.13345	1474.48303	1934.55847	-105.85459	1676.90979	1719.44519	-43.21860	1579.61475	1850.92493	-271.73438	1547.47058	1821.95190	14.53118	1410.69922	1767.44568				-174.77979	1316.46765	1786.46423				41.08312	1105.16968	1938.69702	-394.33795	1173.14905	1531.98352	-5.86134	934.41418	2090.29736	-523.72113	961.90002	1538.37537	-137.00888	1008.40430	1832.67065	-273.49503	1010.07227	1809.68372	-162.24597	937.16406	1554.87793	75.29022	466.33026	1879.71399	-293.29031	581.76892	1836.67786	195.35460	324.47992	1601.54028	-200.29225	165.24570	1923.08191	
381	3.800	-213.43375	1480.50281	1945.76294	-107.52514	1680.31714	1731.04199	-48.45850	1583.53101	1864.06946	-275.66959	1552.06372	1830.82458	10.08658	1412.83496	1783.74683				-179.19217	1319.79211	1797.29834				36.58882	1105.85535	1953.34363	-391.35617	1175.49341	1538.73560	-11.33280	935.95721	2104.64404	-520.88959	964.98572	1553.52783	-143.33450	1012.04907	1846.07739	-279.38553	1012.86676	1816.85022	-158.99020	940.68024	1567.36938	57.94424	474.15680	1909.33813	-295.65445	581.12592	1835.20764	193.51926	317.78113	1646.21155	-201.26460	166.37924	1926.57996	
382	3.810	-220.60841	1487.45813	1956.07776	-110.11911	1683.33569	1740.84119	-53.53278	1587.98254	1875.86926	-280.42984	1558.31470	1839.62000	5.36275	1415.18945	1800.19324				-184.03758	1324.31250	1809.87866				32.20820	1105.93201	1967.44470	-388.69809	1177.80859	1544.96948	-17.06040	936.30847	2117.74927	-517.64703	967.75165	1566.87634	-150.21515	1016.05084	1859.49219	-285.29950	1016.55188	1824.79419	-155.11398	943.29700	1579.95007	39.34536	482.49835	1939.51001	-297.73825	582.66803	1836.82739	190.26794	312.08151	1691.88660	-202.24536	167.55618	1928.63794	
